<svg xmlns="http://www.w3.org/2000/svg" viewBox="0 0 200 200">
<rect x="0" y="0" width="200" height="200" fill="#f58da6"></rect><ellipse cx="100" cy="48" rx="16" ry="30" fill="#FFFFFF" transform="rotate(0.0 100 100)"></ellipse><ellipse cx="100" cy="48" rx="16" ry="30" fill="#FFFFFF" transform="rotate(45.0 100 100)"></ellipse><ellipse cx="100" cy="48" rx="16" ry="30" fill="#FFFFFF" transform="rotate(90.0 100 100)"></ellipse><ellipse cx="100" cy="48" rx="16" ry="30" fill="#FFFFFF" transform="rotate(135.0 100 100)"></ellipse><ellipse cx="100" cy="48" rx="16" ry="30" fill="#FFFFFF" transform="rotate(180.0 100 100)"></ellipse><ellipse cx="100" cy="48" rx="16" ry="30" fill="#FFFFFF" transform="rotate(225.0 100 100)"></ellipse><ellipse cx="100" cy="48" rx="16" ry="30" fill="#FFFFFF" transform="rotate(270.0 100 100)"></ellipse><ellipse cx="100" cy="48" rx="16" ry="30" fill="#FFFFFF" transform="rotate(315.0 100 100)"></ellipse><circle cx="100" cy="100" r="24" fill="#ef476f"></circle>
</svg>