<svg width="500" height="500" viewBox="0 0 500 500" fill="none" xmlns="http://www.w3.org/2000/svg">
<path d="M0 250C0 370.594 85.3866 471.245 199 494.794L270.5 384L287 295H259L142.5 349.5L121 331.5L152.5 240L78.5 259.5L43 250L59.5 172L93 124L127.5 112L170 143.5V13.0737C71.1634 46.4346 0 139.907 0 250Z" fill="#3F4052"/>
<path d="M500 250C500 111.929 388.071 0 250 0C223.502 0 197.966 4.12262 174 11.7615L177 147.5L167.5 151L129 117.5L86 138L61 186L48.5 246L76 255L155.5 226.5L163.5 240L133.5 327.5L145 342L283.5 275L326 240L364.5 197.5L384 226.5L373 327.5L450 275L437 390.5L433.305 420C474.694 375.392 500 315.651 500 250Z" fill="#3F4052"/>
<path d="M250 500C321.434 500 385.87 470.04 431.428 422L451 274L373.5 327.5L382.5 221.5L364 197.5L306 274L279 381L237.5 475.5L228 499.045C235.249 499.677 242.587 500 250 500Z" fill="#3F4052"/>
<mask id="mask0_258_290" style="mask-type:alpha" maskUnits="userSpaceOnUse" x="0" y="0" width="500" height="500">
<circle cx="250" cy="250" r="250" fill="#D9D9D9"/>
</mask>
<g mask="url(#mask0_258_290)">
<path d="M173.115 0C175.393 5.92146 177.689 11.7464 178.986 17.7857C180.42 24.4632 181.448 31.3135 181.764 38.1297C182.718 58.7241 183.065 79.3463 183.988 99.9425C184.712 116.09 186.117 132.207 186.838 148.355C187.052 153.146 186.856 158.63 181.386 160.925C179.075 161.896 175.785 162.038 173.484 161.149C170.615 160.039 168.158 157.643 165.788 155.508C158.113 148.596 150.636 141.464 142.94 134.575C130.31 123.27 115.98 125.65 103.475 134.84C92.1863 143.135 84.0343 154.149 77.3533 166.264C67.9582 183.3 61.4976 201.35 58.256 220.637C57.0958 227.54 55.4834 234.218 57.7565 241.042C59.7647 247.072 63.2096 249.301 69.5261 249.567C78.93 249.964 87.7448 247.545 96.0007 243.467C108.003 237.54 119.644 230.884 131.614 224.886C141.326 220.021 151.223 215.839 162.642 216.774C170.448 217.414 175.13 220.766 174.459 228.687C173.724 237.356 172.348 246.237 169.49 254.41C161.997 275.828 153.425 296.865 145.59 318.168C144.208 321.926 144.312 326.231 143.498 331.897C147.77 330.178 150.466 329.352 152.919 328.064C170.331 318.924 187.336 308.919 205.16 300.678C228.356 289.953 252.143 280.492 275.791 270.769C280.027 269.027 282.814 267.59 283.205 262.21C284.294 247.229 286.582 232.331 287.54 217.345C288.049 209.388 285.943 201.546 281.424 194.653C278.019 189.459 273.069 186.947 266.995 186.345C264.643 186.113 262.193 186.048 259.999 185.292C257.939 184.581 254.814 183.293 254.562 181.843C254.166 179.556 255.06 176.176 256.697 174.584C260.297 171.083 264.354 167.671 268.851 165.551C278.914 160.804 289.195 156.389 299.711 152.783C306.075 150.602 311.559 153.941 313.722 160.312C315.116 164.416 316.246 168.913 316.099 173.185C315.405 193.299 314.227 213.396 313.23 233.5C313.184 234.427 313.225 235.359 313.225 236.167C321.105 225.216 328.457 214.061 336.833 203.738C341.321 198.207 346.964 193.015 353.147 189.579C368.101 181.27 384.27 187.902 389.363 204.265C391.746 211.923 393.118 220.148 393.381 228.168C394.224 253.81 391.215 279.152 385.769 304.216C385.209 306.792 385.247 309.498 384.902 313.307C386.884 311.585 388.281 310.531 389.49 309.294C404.07 294.374 418.677 279.481 433.155 264.464C439.847 257.523 447.378 253.352 457.462 254.443C461.805 254.912 464.816 256.48 466.82 260.241C471.403 268.841 470.206 278.064 469.445 287.133C468.498 298.412 467.039 309.649 465.729 321.725C464.414 327.936 463.139 333.318 461.934 338.716C458.812 352.705 455.764 366.71 452.604 380.69C450.282 390.96 447.83 401.2 445.436 411.453C436.183 424.029 426.101 435.793 412.949 444.532C412.011 445.155 410.905 445.524 409.5 445.644C413.837 429.598 419.248 414.089 423.108 398.202C429.117 373.472 434.121 348.495 439.415 323.594C440.109 320.33 440.557 316.828 440.154 313.556C439.407 307.49 434.93 305.89 430.483 310.002C426.508 313.678 422.772 317.644 419.201 321.718C406.824 335.837 394.621 350.108 382.207 364.194C380.112 366.57 377.505 368.653 374.784 370.291C363.413 377.138 350.652 371.367 349.029 358.618C348.562 354.953 348.47 351.066 349.153 347.46C352.454 330.035 355.995 312.654 359.608 295.291C364.478 271.891 368.013 248.355 367.086 224.366C367.006 222.287 365.941 219.145 364.473 218.52C362.908 217.854 359.645 218.963 358.304 220.4C354.404 224.579 350.388 228.925 347.679 233.893C336.978 253.511 326.426 273.228 316.504 293.248C311.64 303.062 307.405 313.37 304.395 323.887C294.891 357.096 285.395 390.309 272.29 422.301C263.378 444.058 253.447 465.398 243.911 486.897C241.948 491.325 239.72 495.636 237.614 500C226.855 499.66 216.754 497.305 206 496.85C204.411 496.783 201.154 496.135 199.5 495C206.295 480.613 214.299 468.755 221.077 454.956C240.352 415.714 258.842 376.15 269.22 333.386C271.579 323.666 273.74 313.898 276.076 303.792C274.272 303.666 273.571 303.44 272.986 303.61C271.2 304.128 269.43 304.727 267.705 305.42C232.396 319.595 198.116 335.82 166.059 356.472C155.498 363.275 144.206 366.91 131.394 365.644C120.745 364.592 115.473 360.24 113.399 349.696C111.276 338.909 112.512 328.346 116.037 318.146C122.071 300.69 128.62 283.412 134.831 266.015C135.967 262.833 136.523 259.444 137.347 256.151C136.904 255.85 136.462 255.549 136.019 255.248C129.345 258.805 122.654 262.331 116.001 265.925C101.418 273.802 86.5438 280.542 69.3096 279.026C49.3229 277.268 32.6609 265.637 29.8017 245.265C28.2738 234.379 28.9589 223.662 31.6086 213.105C34.3662 202.118 37.6059 191.252 40.8636 180.077C42.1952 176.911 43.298 174.001 44.6624 170.854C47.4168 165.337 49.9095 160.057 52.6159 154.493C60.4279 140.686 69.6484 128.423 80.8341 117.625C99.2083 99.889 126.741 94.925 148.209 111.933C150.554 113.791 152.854 115.703 155.916 118.192C156.148 115.719 156.494 113.957 156.449 112.204C156.133 100.044 155.797 87.8844 155.337 75.7294C155.114 69.8283 154.879 63.9041 154.15 58.0527C153.509 52.9153 152.171 47.865 151.197 42.351C151.083 40.6048 151.113 39.2195 150.711 37.973C147.861 29.1178 144.923 20.291 142.013 11.4552C144.705 9.87494 147.227 7.79652 150.121 6.8118C157.557 4.28175 165.158 2.23681 173.115 0Z" fill="#DABBE3"/>
</g>
</svg>
